<mxfile host="app.diagrams.net" modified="2023-05-17T02:23:59.164Z" agent="Mozilla/5.0 (Windows NT 10.0; Win64; x64) AppleWebKit/537.36 (KHTML, like Gecko) Chrome/110.0.0.0 Safari/537.36" version="21.2.9" etag="TzOkevhdcIvuSbgtdW8X" type="github">
  <diagram name="第 1 页" id="Gv4UfnVqFrK0v5fwwKsu">
    <mxGraphModel>
      <root>
        <mxCell id="0" />
        <mxCell id="1" parent="0" />
      </root>
    </mxGraphModel>
  </diagram>
</mxfile>
